<svg width="63" height="26" viewBox="0 0 63 26" fill="none" xmlns="http://www.w3.org/2000/svg"><path d="M6.616 18.459c.441 0 .87-.07 1.284-.212.424-.141.8-.336 1.126-.583.327-.256.588-.552.782-.887.203-.345.309-.716.318-1.113h2.318a3.797 3.797 0 0 1-.504 1.828 5.254 5.254 0 0 1-1.284 1.523A6.777 6.777 0 0 1 8.8 20.062a6.292 6.292 0 0 1-2.185.384c-1.087 0-2.036-.195-2.848-.583a5.996 5.996 0 0 1-2.04-1.563 6.901 6.901 0 0 1-1.219-2.278 8.993 8.993 0 0 1-.41-2.729v-.556c0-.945.137-1.85.41-2.716a6.732 6.732 0 0 1 1.219-2.278 5.921 5.921 0 0 1 2.04-1.576c.812-.389 1.761-.583 2.848-.583.847 0 1.624.137 2.33.41a5.553 5.553 0 0 1 1.842 1.1 4.868 4.868 0 0 1 1.656 3.682h-2.318a2.877 2.877 0 0 0-.292-1.218 3.219 3.219 0 0 0-.728-1.02 3.384 3.384 0 0 0-1.113-.69 3.71 3.71 0 0 0-1.377-.25c-.76 0-1.4.154-1.921.463-.512.3-.927.697-1.245 1.192a5.056 5.056 0 0 0-.689 1.643 8.642 8.642 0 0 0-.199 1.84v.557c0 .627.067 1.25.2 1.868.14.609.366 1.16.675 1.655a3.83 3.83 0 0 0 1.245 1.193c.52.3 1.165.45 1.934.45Zm22.008-5.285a10.72 10.72 0 0 1-.37 2.874c-.248.883-.61 1.651-1.087 2.305a5.116 5.116 0 0 1-1.775 1.536c-.698.371-1.497.557-2.398.557-.874 0-1.646-.142-2.318-.424a4.81 4.81 0 0 1-1.708-1.219v6.888h-2.45V5.85h2.238l.119 1.563a4.73 4.73 0 0 1 1.722-1.351c.68-.318 1.466-.477 2.358-.477.918 0 1.73.18 2.437.543a5.042 5.042 0 0 1 1.775 1.51c.477.645.839 1.417 1.086 2.318.247.892.371 1.872.371 2.94v.279Zm-2.45-.278c0-.698-.08-1.36-.239-1.987a4.923 4.923 0 0 0-.715-1.67A3.537 3.537 0 0 0 24 8.088c-.494-.282-1.086-.424-1.775-.424-.786 0-1.448.186-1.987.557-.53.362-.953.83-1.271 1.404v6.901a4.09 4.09 0 0 0 1.271 1.39c.53.354 1.201.53 2.014.53.68 0 1.267-.14 1.761-.423.495-.292.901-.68 1.219-1.166a5.243 5.243 0 0 0 .702-1.682 8.22 8.22 0 0 0 .239-2v-.278Z" fill="#EEE"/><path d="M45.095 12.803c0 1.227-.14 2.318-.423 3.272-.283.945-.69 1.744-1.22 2.397a5.156 5.156 0 0 1-1.946 1.47c-.769.336-1.647.504-2.636.504-.98 0-1.859-.168-2.636-.504a5.269 5.269 0 0 1-1.96-1.47c-.54-.653-.954-1.453-1.246-2.397-.282-.954-.423-2.045-.423-3.272V8.286c0-1.227.14-2.314.423-3.258.283-.954.69-1.758 1.219-2.411a5.212 5.212 0 0 1 1.96-1.484c.777-.344 1.656-.516 2.636-.516.99 0 1.868.172 2.636.516a5.08 5.08 0 0 1 1.96 1.484c.54.653.95 1.457 1.233 2.41.282.945.423 2.032.423 3.259v4.517Zm-10.027-.49 7.51-5.762c-.14-1.28-.516-2.252-1.125-2.914-.6-.671-1.47-1.007-2.61-1.007-1.289 0-2.243.437-2.86 1.311-.61.866-.915 2.133-.915 3.802v4.57Zm7.564-3.418-7.497 5.736c.15 1.245.534 2.194 1.152 2.848.618.653 1.479.98 2.583.98 1.298 0 2.247-.442 2.848-1.325.609-.883.914-2.154.914-3.815V8.895Z" fill="#2CFFFE"/><path d="m55.399 11.16 3.828-5.311H62.1l-5.338 7.086 5.484 7.246h-2.835l-3.96-5.458-3.961 5.458h-2.86l5.484-7.246-5.338-7.086h2.834l3.79 5.311Z" fill="#EEE"/></svg>
